<svg width="24" height="24" viewBox="0 0 24 24" fill="none" xmlns="http://www.w3.org/2000/svg">
<path fill-rule="evenodd" clip-rule="evenodd" d="M9.00021 16.9998C9.00026 17.1975 9.05893 17.3908 9.16881 17.5552C9.2787 17.7197 9.43486 17.8478 9.61756 17.9235C9.80026 17.9991 10.0013 18.0189 10.1952 17.9804C10.3892 17.9418 10.5674 17.8466 10.7072 17.7068L15.7072 12.7068C15.8947 12.5193 16 12.265 16 11.9998C16 11.7346 15.8947 11.4803 15.7072 11.2928L10.7072 6.29279C10.5674 6.15298 10.3892 6.05777 10.1952 6.0192C10.0013 5.98064 9.80026 6.00044 9.61756 6.07611C9.43486 6.15178 9.2787 6.27992 9.16881 6.44433C9.05893 6.60874 9.00026 6.80204 9.00021 6.99979L9.00021 16.9998Z" fill="#2C365E"/>
</svg>
