<svg width="24" height="24" viewBox="0 0 24 24" fill="none" xmlns="http://www.w3.org/2000/svg">
<g clip-path="url(#clip0_5923_1770)">
<rect width="24" height="24" rx="12" fill="#8A92B4"/>
<path d="M11.9904 12.2388C10.0336 12.2388 8.40717 10.5966 8.40717 8.65335C8.40717 6.64292 10.0336 5 11.9911 5C14.0152 5 15.5744 6.64222 15.5744 8.65335C15.5729 9.12585 15.4792 9.59342 15.2989 10.0294C15.1185 10.4653 14.855 10.8611 14.5233 11.1941C14.1915 11.5271 13.7982 11.7908 13.3656 11.9702C12.9331 12.1495 12.4698 12.2411 12.0022 12.2395L11.9904 12.2388ZM11.9904 7.11193C11.162 7.11193 10.5316 7.81544 10.5316 8.65405C10.5316 9.49126 11.162 10.1283 11.9911 10.1283C12.8535 10.1283 13.4506 9.49126 13.4506 8.65405C13.4513 7.81474 12.8535 7.11193 11.9904 7.11193ZM13.4174 15.2222L15.4421 17.1998C15.8404 17.6345 15.8404 18.2715 15.4421 18.674C15.0112 19.1087 14.347 19.1087 14.0152 18.674L11.9911 16.6628L10.0336 18.674C9.83479 18.8749 9.5688 18.975 9.26956 18.975C9.03751 18.975 8.77221 18.8742 8.53947 18.674C8.14117 18.2715 8.14117 17.6345 8.53947 17.1991L10.5967 15.2215C9.85382 14.9991 9.14112 14.6843 8.47505 14.2842C7.97701 14.0161 7.87795 13.3462 8.14325 12.8429C8.47505 12.3403 9.07214 12.2066 9.60344 12.5419C10.3229 12.9856 11.1494 13.2203 11.9922 13.2203C12.835 13.2203 13.6615 12.9856 14.3809 12.5419C14.9122 12.2066 15.5418 12.3403 15.8404 12.8429C16.1396 13.3462 16.0059 14.0154 15.5411 14.2842C14.9115 14.6867 14.1814 14.9884 13.4181 15.2229L13.4174 15.2222Z" fill="white"/>
</g>
<defs>
<clipPath id="clip0_5923_1770">
<rect width="24" height="24" fill="white"/>
</clipPath>
</defs>
</svg>
