<svg width="24" height="24" viewBox="0 0 24 24" fill="none" xmlns="http://www.w3.org/2000/svg">
<path d="M11.7927 3.48047C8.18066 3.48328 4.64633 5.90738 3.27556 7.65338C0.067342 11.7398 -1.73439 20.0256 11.4455 17.8701C15.3356 17.234 17.7962 13.5139 18.3155 10.2093C20.1613 10.8568 22.9667 10.0961 23.0266 8.41702C23.1069 6.16571 19.1533 3.75788 16.8974 5.56983C15.3394 4.05525 13.5567 3.47911 11.7927 3.48047ZM20.6701 8.24016C20.782 8.24016 20.8893 8.28461 20.9684 8.36372C21.0476 8.44284 21.092 8.55015 21.092 8.66203C21.092 8.77392 21.0476 8.88123 20.9684 8.96034C20.8893 9.03946 20.782 9.08391 20.6701 9.08391C20.5582 9.08391 20.4509 9.03946 20.3718 8.96034C20.2927 8.88123 20.2482 8.77392 20.2482 8.66203C20.2482 8.55015 20.2927 8.44284 20.3718 8.36372C20.4509 8.28461 20.5582 8.24016 20.6701 8.24016ZM21.9488 10.8724C21.5312 11.0854 21.0705 11.2329 20.5866 11.3056C21.616 13.3706 21.966 15.6458 22.7246 17.7946C22.854 16.2712 22.8459 13.3429 21.9488 10.8724ZM11.1777 18.8178C10.8966 18.8878 10.613 18.9469 10.3273 18.995L11.3533 21.1418C10.4319 21.1393 9.51051 21.161 8.5902 21.2068L8.03511 19.1342C7.73276 19.1197 7.43389 19.092 7.13956 19.0515L7.73009 21.2565C7.39714 21.2781 7.05997 21.302 6.71459 21.3305L6.78415 22.1714C10.3593 21.8756 13.251 21.9735 15.3812 22.171L15.459 21.3309C14.5397 21.2457 13.4815 21.1792 12.2938 21.1531L11.1777 18.8178Z" fill="#8A92B4"/>
</svg>
