<svg width="24" height="24" viewBox="0 0 24 24" fill="none" xmlns="http://www.w3.org/2000/svg">
<rect width="24" height="24" rx="12" fill="#2C365E"/>
<g clip-path="url(#clip0_5923_1755)">
<path d="M10.308 15.9772C10.1908 15.86 10.125 15.701 10.125 15.5353C10.125 15.3696 10.1908 15.2106 10.308 15.0934L13.4017 11.9997L10.308 8.90591C10.1941 8.78804 10.1311 8.63016 10.1326 8.46629C10.134 8.30242 10.1997 8.14566 10.3156 8.02978C10.4315 7.9139 10.5882 7.84817 10.7521 7.84674C10.916 7.84532 11.0739 7.90832 11.1917 8.02216L14.7274 11.5578C14.8445 11.675 14.9104 11.8339 14.9104 11.9997C14.9104 12.1654 14.8445 12.3243 14.7274 12.4415L11.1917 15.9772C11.0745 16.0943 10.9156 16.1602 10.7499 16.1602C10.5841 16.1602 10.4252 16.0943 10.308 15.9772Z" fill="white"/>
</g>
<defs>
<clipPath id="clip0_5923_1755">
<rect width="10" height="10" fill="white" transform="translate(7 17) rotate(-90)"/>
</clipPath>
</defs>
</svg>
